<?xml version="1.0" standalone="no"?>
<!DOCTYPE svg PUBLIC "-//W3C//DTD SVG 20010904//EN"
 "http://www.w3.org/TR/2001/REC-SVG-20010904/DTD/svg10.dtd">
<svg version="1.0" xmlns="http://www.w3.org/2000/svg"
 width="1000.000000pt" height="1000.000000pt" viewBox="0 0 1000.000000 1000.000000"
 preserveAspectRatio="xMidYMid meet">
<metadata>
Created by potrace 1.11, written by Peter Selinger 2001-2013
</metadata>
<g transform="translate(0.000000,1000.000000) scale(0.100000,-0.100000)"
fill="#000000" stroke="none">
<path d="M262 9500 c-18 -11 -41 -34 -52 -52 -20 -33 -20 -60 -20 -4453 0
-4393 0 -4420 20 -4453 11 -18 34 -41 52 -52 33 -20 61 -20 4739 -20 l4706 0
34 23 c19 12 42 38 51 57 17 33 18 266 18 4443 0 3711 -2 4413 -14 4440 -7 18
-26 43 -41 57 l-27 25 -4716 2 c-4693 3 -4717 3 -4750 -17z"/>
</g>
</svg>
